<?xml version="1.0" standalone="no"?>
<!DOCTYPE svg PUBLIC "-//W3C//DTD SVG 20010904//EN"
 "http://www.w3.org/TR/2001/REC-SVG-20010904/DTD/svg10.dtd">
<svg version="1.0" xmlns="http://www.w3.org/2000/svg"
 width="512.000000pt" height="512.000000pt" viewBox="0 0 512.000000 512.000000"
 preserveAspectRatio="xMidYMid meet">
<metadata>
Created by potrace 1.16, written by Peter Selinger 2001-2019
</metadata>
<g transform="translate(0.000000,512.000000) scale(0.100000,-0.100000)"
fill="#000000" stroke="none">
<path d="M360 5101 c-91 -29 -142 -61 -211 -130 -70 -70 -106 -130 -133 -220
-14 -50 -16 -255 -16 -2191 0 -2343 -4 -2173 58 -2295 32 -64 143 -175 207
-207 122 -62 -48 -58 2295 -58 2343 0 2173 -4 2295 58 64 32 175 143 207 207
62 122 58 -48 58 2295 0 2343 4 2173 -58 2295 -32 64 -143 175 -207 207 -122
62 49 58 -2299 57 -2024 0 -2144 -1 -2196 -18z m1273 -832 c12 -7 87 -75 167
-153 80 -77 157 -147 172 -155 24 -13 31 -11 82 17 219 124 502 191 804 192
304 0 482 -53 616 -184 100 -97 143 -221 134 -390 -4 -80 -10 -103 -41 -167
-76 -157 -254 -284 -462 -330 -37 -9 -124 -14 -225 -13 -138 0 -179 3 -249 22
-92 24 -244 92 -315 141 -24 17 -47 31 -50 31 -3 0 -6 -39 -6 -87 1 -127 53
-263 138 -358 l27 -30 155 0 c186 0 272 -20 333 -80 86 -83 53 -223 -66 -283
-100 -50 -327 -67 -471 -37 l-69 15 -45 -37 c-88 -72 -156 -177 -187 -289 -25
-93 -31 -314 -11 -394 31 -121 106 -206 241 -273 187 -93 483 -112 710 -46
168 49 423 225 611 422 74 77 95 89 130 76 62 -23 77 -196 30 -345 -90 -282
-426 -543 -831 -647 -177 -45 -238 -52 -470 -52 -234 0 -335 10 -491 50 -195
49 -330 122 -453 245 -96 95 -141 165 -182 279 -76 214 -62 530 31 728 90 194
263 353 496 456 l41 19 -86 86 c-137 137 -204 291 -220 499 -13 176 8 290 76
426 l34 69 -28 35 c-127 160 -213 334 -213 434 0 51 20 103 42 112 24 10 79 7
101 -4z"/>
<path d="M2665 3712 c-94 -24 -152 -52 -220 -103 l-56 -42 38 -21 c145 -81
277 -118 433 -120 184 -2 255 37 255 139 0 67 -23 101 -91 135 -43 22 -64 25
-169 27 -89 2 -138 -2 -190 -15z"/>
</g>
</svg>
